<svg width="19" height="19" viewBox="0 0 19 19" fill="none" xmlns="http://www.w3.org/2000/svg">
<g id="icon" clip-path="url(#clip0_536_12476)">
<path id="Vector" fill-rule="evenodd" clip-rule="evenodd" d="M6.82207 0.728516C5.83146 0.728516 4.88145 1.12203 4.18099 1.82249L1.89501 4.10846C1.19454 4.80892 0.801025 5.75895 0.801025 6.74956C0.801025 7.8426 1.27054 8.82597 2.01888 9.509C1.27054 10.192 0.801025 11.1754 0.801025 12.2684C0.801025 13.2591 1.19454 14.2091 1.89501 14.9095L4.18099 17.1955C4.88145 17.896 5.83146 18.2895 6.82207 18.2895C7.91511 18.2895 8.89848 17.82 9.58152 17.0716C10.2646 17.82 11.2479 18.2895 12.341 18.2895C13.3316 18.2895 14.2816 17.896 14.982 17.1955L17.268 14.9095C17.9685 14.2091 18.362 13.2591 18.362 12.2684C18.362 11.1754 17.8925 10.192 17.1442 9.509C17.8925 8.82597 18.362 7.8426 18.362 6.74956C18.362 5.75895 17.9685 4.80892 17.268 4.10846L14.982 1.82249C14.2816 1.12203 13.3316 0.728516 12.341 0.728516C11.2479 0.728516 10.2646 1.19802 9.58152 1.94637C8.89848 1.19802 7.91511 0.728516 6.82207 0.728516ZM11.9859 9.62736C12.0509 9.56231 12.0509 9.45569 11.9859 9.39064L11.4907 8.89547C10.4363 7.84105 8.72674 7.84105 7.67233 8.89547L7.17716 9.39064C7.11211 9.45569 7.11211 9.56231 7.17716 9.62736L7.67233 10.1225C8.72674 11.177 10.4363 11.177 11.4907 10.1225L11.9859 9.62736ZM11.0796 13.2931C10.7451 13.6276 10.5571 14.0814 10.5571 14.5544C10.5571 15.5396 11.3558 16.3383 12.341 16.3383C12.8141 16.3383 13.2678 16.1503 13.6023 15.8158L15.8883 13.5298C16.2229 13.1953 16.4108 12.7415 16.4108 12.2684C16.4108 11.2833 15.6121 10.4846 14.627 10.4846C14.1539 10.4846 13.7001 10.6725 13.3656 11.0071L11.0796 13.2931ZM8.60592 14.5544C8.60592 14.0814 8.41798 13.6276 8.08345 13.2931L5.79743 11.0071C5.4629 10.6725 5.00918 10.4846 4.53608 10.4846C3.5509 10.4846 2.75224 11.2833 2.75224 12.2684C2.75224 12.7415 2.94018 13.1953 3.27471 13.5298L5.56071 15.8158C5.89525 16.1503 6.34898 16.3383 6.82207 16.3383C7.80724 16.3383 8.60592 15.5396 8.60592 14.5544ZM8.60592 4.46357C8.60592 4.93666 8.41798 5.39037 8.08346 5.72489L5.79743 8.01092C5.4629 8.34545 5.00918 8.5334 4.53608 8.5334C3.5509 8.5334 2.75224 7.73473 2.75224 6.74956C2.75224 6.27646 2.94018 5.82274 3.27471 5.48821L5.56071 3.20221C5.89525 2.86767 6.34898 2.67974 6.82207 2.67974C7.80724 2.67974 8.60592 3.47838 8.60592 4.46357ZM13.3656 8.01092L11.0796 5.72489C10.7451 5.39037 10.5571 4.93666 10.5571 4.46357C10.5571 3.47838 11.3558 2.67974 12.341 2.67974C12.8141 2.67974 13.2678 2.86767 13.6023 3.20221L15.8883 5.48821C16.2229 5.82274 16.4108 6.27646 16.4108 6.74956C16.4108 7.73473 15.6121 8.5334 14.627 8.5334C14.1539 8.5334 13.7001 8.34545 13.3656 8.01092Z" fill="#52525A"/>
</g>
<defs>
<clipPath id="clip0_536_12476">
<rect width="17.561" height="18" fill="white" transform="translate(0.800049 0.5)"/>
</clipPath>
</defs>
</svg>
